<?xml version="1.0" standalone="no"?>
<!DOCTYPE svg PUBLIC "-//W3C//DTD SVG 20010904//EN"
 "http://www.w3.org/TR/2001/REC-SVG-20010904/DTD/svg10.dtd">
<svg version="1.0" xmlns="http://www.w3.org/2000/svg"
 width="497.000000pt" height="497.000000pt" viewBox="0 0 497.000000 497.000000"
 preserveAspectRatio="xMidYMid meet">
<metadata>
Created by potrace 1.14, written by Peter Selinger 2001-2017
</metadata>
<g transform="translate(0.000000,497.000000) scale(0.100000,-0.100000)"
fill="#000000" stroke="none">
<path d="M3685 4833 c-137 -1 -639 -9 -1115 -18 -476 -8 -1043 -18 -1260 -21
-217 -3 -422 -10 -454 -15 -152 -22 -299 -114 -368 -229 -67 -111 -73 -145
-148 -818 -38 -345 -128 -1149 -199 -1787 -154 -1386 -140 -1233 -128 -1330
18 -158 103 -286 230 -346 83 -38 131 -46 354 -59 103 -5 307 -17 453 -25 146
-9 384 -22 530 -30 146 -9 342 -20 435 -25 94 -5 289 -17 435 -25 146 -8 468
-27 715 -41 623 -36 647 -36 765 5 52 17 145 58 205 90 61 32 164 83 230 113
302 139 357 170 425 238 78 78 131 178 154 292 27 133 19 1184 -14 1843 -58
1139 -189 1781 -414 2032 -131 145 -218 161 -831 156z"/>
</g>
</svg>
